<svg id="Capa_1" enable-background="new 0 0 511.998 511.998" height="512" viewBox="0 0 511.998 511.998" width="512" xmlns="http://www.w3.org/2000/svg"><g><path d="m480.999 391.998h-75v-40.001c0-8.284-6.717-15-15-15h-75v-49.995c0-8.284-6.717-15-15-15h-.002v-45.002c0-8.284-6.716-15-15-15h-15v-87h91.002c5.199 0 10.026-2.691 12.76-7.114 2.733-4.422 2.981-9.944.656-14.595l-16.647-33.29 16.647-33.292c2.325-4.649 2.077-10.172-.656-14.594-2.733-4.423-7.562-7.114-12.76-7.114h-91.002v-.001c0-8.284-6.716-15-15-15s-15 6.716-15 15v197h-15c-8.284 0-15 6.716-15 15v45.002c-8.283.001-14.998 6.717-14.998 15v49.995h-75c-8.284 0-15 6.716-15 15v40.001h-75c-8.284 0-15 6.716-15 15v90c0 8.284 6.716 15 15 15h450c8.283 0 15-6.716 15-15v-90c0-8.284-6.717-15-15-15zm-143.271-346.997-9.146 18.292c-2.112 4.223-2.112 9.193 0 13.417l9.146 18.29h-66.73v-49.999zm38.271 321.996v115.001h-60v-115.001zm-105.002-124.997v30.002h-30v-30.002zm-224.998 179.998h60v60h-60zm90-55.001h60v115.001h-60zm90-64.995h60v179.996h-60zm240 179.996h-60v-60h60z"/></g></svg>