<svg id="Capa_1" enable-background="new 0 0 511.998 511.998" height="512" viewBox="0 0 511.998 511.998" width="512" xmlns="http://www.w3.org/2000/svg"><path d="m494.45 17.552c-11.32-11.318-26.388-17.552-42.428-17.552s-31.107 6.234-42.426 17.552l-35.667 35.668-21.216-21.215c-5.857-5.857-15.355-5.857-21.213 0l-42.426 42.427c-5.858 5.858-5.858 15.355 0 21.213l10.607 10.608-46.354 46.354c-21.435-8.367-44.032-12.608-67.325-12.608-102.561 0-186 83.44-186 186 0 102.561 83.439 186 186 186s185.999-83.439 185.999-186c0-23.293-4.24-45.891-12.607-67.326l46.353-46.354 10.608 10.608c2.929 2.929 6.768 4.394 10.607 4.394 3.838 0 7.678-1.465 10.606-4.393l42.428-42.426c2.814-2.813 4.394-6.629 4.394-10.607s-1.58-7.794-4.394-10.607l-21.215-21.215 35.668-35.668c23.394-23.394 23.394-61.458.001-84.853zm-264.449 158.76c-13.768 16.306-19.936 37.885-16.961 59.01l-9.192 9.193c-5.832-1.273-11.801-1.916-17.844-1.916-2.27 0-4.513.117-6.739.296l-18.962-70.767c8.364-1.392 16.948-2.129 25.701-2.129 15.078-.001 29.803 2.124 43.997 6.313zm105.689 105.688c4.189 14.194 6.313 28.919 6.313 43.998 0 8.753-.736 17.336-2.129 25.7l-70.767-18.962c.179-2.225.296-4.468.296-6.738 0-6.043-.643-12.012-1.916-17.844l9.192-9.193c21.129 2.975 42.704-3.192 59.011-16.961zm-96.446 39.968c.1 1.337.159 2.68.159 4.03 0 29.445-23.955 53.4-53.399 53.4s-53.399-23.956-53.4-53.4c0-29.445 23.955-53.4 53.399-53.4 1.352 0 2.695.059 4.031.159-.142 1.461-.215 2.938-.215 4.425 0 12.02 4.681 23.321 13.181 31.82 8.499 8.499 19.8 13.18 31.819 13.18 1.488.001 2.964-.072 4.425-.214zm-107.917-142.072 18.958 70.755c-28.163 13.405-47.682 42.136-47.682 75.348.001 17.586 5.486 33.907 14.815 47.372l-51.771 51.771c-22.258-26.972-35.644-61.524-35.644-99.144 0-66.789 42.195-123.901 101.324-146.102zm54.676 302.102c-37.619 0-72.171-13.385-99.143-35.643l51.771-51.771c13.465 9.329 29.787 14.814 47.372 14.814 33.211 0 61.941-19.518 75.347-47.681l70.754 18.958c-22.2 59.129-79.312 101.323-146.101 101.323zm133.067-225.426c-11.291 11.291-27.946 15.743-43.473 11.616-5.172-1.375-10.679.108-14.46 3.89l-15.712 15.712c-2.833 2.833-6.599 4.393-10.606 4.393-4.006 0-7.773-1.56-10.606-4.393s-4.394-6.6-4.394-10.607 1.561-7.773 4.394-10.607l15.711-15.712c3.782-3.782 5.264-9.291 3.89-14.46-4.126-15.523.325-32.181 11.616-43.472l65.466-65.467 63.64 63.64zm154.167-175.38-46.275 46.274c-2.814 2.813-4.394 6.628-4.394 10.607 0 3.978 1.58 7.794 4.394 10.607l21.215 21.215-21.214 21.213-106.069-106.069 21.213-21.213 21.216 21.215c5.857 5.857 15.355 5.857 21.213-.001l46.273-46.274c5.652-5.653 13.187-8.766 21.213-8.766 8.027 0 15.562 3.113 21.215 8.766 11.696 11.697 11.696 30.729 0 42.426z"/></svg>