<svg id="Capa_1" enable-background="new 0 0 511.999 511.999" height="512" viewBox="0 0 511.999 511.999" width="512" xmlns="http://www.w3.org/2000/svg"><g><path d="m431.006 60.002h-70.004v-15.002c0-8.284-6.716-15-15-15h-47.573c-6.191-17.461-22.874-30-42.43-30s-36.239 12.539-42.43 30h-47.573c-8.284 0-15 6.716-15 15v15.001h-70.003c-8.284 0-15 6.716-15 15v421.997c0 8.284 6.716 15 15 15h350.014c8.284 0 15-6.716 15-15v-421.996c-.001-8.284-6.717-15-15.001-15zm-250.009-.002h45.003c8.284 0 15-6.716 15-15 0-8.271 6.729-15 15-15s15 6.729 15 15c0 8.284 6.716 15 15 15h45.003v30h-150.006zm235.009 421.999h-320.013v-391.997h55.004v14.999c0 8.284 6.716 15 15 15h180.006c8.284 0 15-6.716 15-15v-14.999h55.004v391.997z"/><path d="m369.797 252.852c-6.712-4.855-16.089-3.35-20.945 3.362l-23.636 32.676-1.807-2.657c-4.66-6.851-13.988-8.626-20.839-3.967-6.85 4.659-8.626 13.989-3.967 20.839l13.833 20.336c2.75 4.043 7.297 6.492 12.186 6.563.073.001.145.001.217.001 4.808 0 9.331-2.306 12.153-6.208l36.167-50c4.856-6.712 3.35-16.09-3.362-20.945z"/><path d="m348.852 156.212-23.636 32.676-1.807-2.657c-4.66-6.85-13.988-8.626-20.839-3.967-6.85 4.659-8.626 13.989-3.967 20.839l13.833 20.336c2.75 4.043 7.297 6.492 12.186 6.563.073.001.145.001.217.001 4.808 0 9.331-2.306 12.153-6.208l36.167-50c4.855-6.712 3.35-16.09-3.362-20.945s-16.089-3.351-20.945 3.362z"/><path d="m240.999 175.004h-30c-8.284 0-15 6.716-15 15s6.716 15 15 15h30c8.284 0 15-6.716 15-15s-6.716-15-15-15z"/><path d="m240.999 275.006h-30c-8.284 0-15 6.716-15 15s6.716 15 15 15h30c8.284 0 15-6.716 15-15s-6.716-15-15-15z"/><path d="m369.797 352.855c-6.712-4.855-16.089-3.351-20.945 3.362l-23.636 32.676-1.807-2.657c-4.66-6.85-13.988-8.626-20.839-3.967-6.85 4.659-8.626 13.989-3.967 20.839l13.833 20.336c2.75 4.043 7.297 6.492 12.186 6.563.073.001.145.001.217.001 4.808 0 9.331-2.306 12.153-6.208l36.167-50c4.856-6.713 3.35-16.09-3.362-20.945z"/><path d="m240.999 375.009h-30c-8.284 0-15 6.716-15 15s6.716 15 15 15h30c8.284 0 15-6.716 15-15s-6.716-15-15-15z"/><circle cx="150.999" cy="189.999" r="15"/><circle cx="150.999" cy="290.005" r="15"/><circle cx="150.999" cy="390.01" r="15"/></g></svg>